<svg xmlns="http://www.w3.org/2000/svg" fill="none" viewBox="0 0 64 64">
  <g clip-path="url(#a)">
    <path fill="#3b3b3b" d="M21.641 9.367c-.875 1.338-.966 3.398-.958 5.341.008 1.865-.038 3.622.128 4.529-1.28-.062-1.816.965-1.619 4.443.175 3.084 1.407 3.75 2.141 4.173.649 3.118 1.898 6.071 4.11 8.304l.005-.032c-.136.81-.308 1.673-.53 2.529-3.047 1.07-10.52 3.854-12.707 6.16C9.453 47.722 8 58.668 8 58.668h48s-1.453-10.946-4.21-13.852c-2.184-2.303-9.633-5.081-12.69-6.155-.252-.85-.44-1.701-.582-2.503 2.212-2.233 3.5-5.186 4.149-8.304.734-.424 1.927-1.09 2.102-4.173.197-3.478-.339-4.505-1.619-4.443.165-.9.178-2.61.166-4.445-.014-1.94-.106-4.018-.89-5.425-.972-1.748-2.34-2.773-5.007-2.141-2.334-1.123-4.793-2.328-8.907-1.418-4.637 1.025-6.275 2.647-6.87 3.559Z"/>
  </g>
  <defs>
    <clipPath id="a">
      <path fill="#fff" d="M0 0h64v64H0z"/>
    </clipPath>
  </defs>
</svg>
